<?xml version="1.0" encoding="UTF-8"?>
<svg id="Layer_2" data-name="Layer 2" xmlns="http://www.w3.org/2000/svg" viewBox="0 0 324 126.39">
  <defs>
    <style>
      .cls-1 {
        fill: #303030;
      }
    </style>
  </defs>
  <g id="Layer_1-2" data-name="Layer 1">
    <g>
      <rect x="71.34" y="21.66" width="248.66" height="83.07" rx="20.33" ry="20.33"/>
      <path d="M299.67,25.66c9.02,0,16.33,7.31,16.33,16.33v42.42c0,9.02-7.31,16.33-16.33,16.33H91.67c-9.02,0-16.33-7.31-16.33-16.33V41.99c0-9.02,7.31-16.33,16.33-16.33h208.01m0-8H91.67c-13.41,0-24.33,10.91-24.33,24.33v42.42c0,13.41,10.91,24.33,24.33,24.33h208.01c13.41,0,24.33-10.91,24.33-24.33V41.99c0-13.41-10.91-24.33-24.33-24.33h0Z"/>
    </g>
    <g>
      <circle class="cls-1" cx="63.2" cy="63.2" r="59.2" transform="translate(-19.37 29) rotate(-22.5)"/>
      <path d="M63.2,8c30.48,0,55.2,24.71,55.2,55.2s-24.71,55.2-55.2,55.2S8,93.68,8,63.2,32.71,8,63.2,8m0-8C28.35,0,0,28.35,0,63.2s28.35,63.2,63.2,63.2,63.2-28.35,63.2-63.2S98.04,0,63.2,0h0Z"/>
    </g>
  </g>
</svg>